<svg id="visual" viewBox="0 0 960 540" width="960" height="540" xmlns="http://www.w3.org/2000/svg" xmlns:xlink="http://www.w3.org/1999/xlink" version="1.1"><g stroke-width="1" stroke-linejoin="bevel"><path d="M455 281L450 308L497 313Z" fill="#491957" stroke="#491957"></path><path d="M450 308L490 339L497 313Z" fill="#391251" stroke="#391251"></path><path d="M455 281L408 311L450 308Z" fill="#4d1b59" stroke="#4d1b59"></path><path d="M450 308L449 377L490 339Z" fill="#612561" stroke="#612561"></path><path d="M497 313L487 229L455 281Z" fill="#4d1b59" stroke="#4d1b59"></path><path d="M455 281L365 235L408 311Z" fill="#411554" stroke="#411554"></path><path d="M471 389L517 365L490 339Z" fill="#5d235f" stroke="#5d235f"></path><path d="M490 339L551 337L497 313Z" fill="#391251" stroke="#391251"></path><path d="M497 313L535 242L487 229Z" fill="#4d1b59" stroke="#4d1b59"></path><path d="M551 337L554 305L497 313Z" fill="#491957" stroke="#491957"></path><path d="M429 377L449 377L450 308Z" fill="#451756" stroke="#451756"></path><path d="M554 305L535 242L497 313Z" fill="#511d5b" stroke="#511d5b"></path><path d="M517 365L551 337L490 339Z" fill="#3d1453" stroke="#3d1453"></path><path d="M449 377L471 389L490 339Z" fill="#411554" stroke="#411554"></path><path d="M408 311L429 377L450 308Z" fill="#511d5b" stroke="#511d5b"></path><path d="M449 377L454 410L471 389Z" fill="#411554" stroke="#411554"></path><path d="M567 363L565 340L551 337Z" fill="#391251" stroke="#391251"></path><path d="M551 337L565 340L554 305Z" fill="#491957" stroke="#491957"></path><path d="M554 305L586 272L535 242Z" fill="#4d1b59" stroke="#4d1b59"></path><path d="M567 363L551 337L517 365Z" fill="#612561" stroke="#612561"></path><path d="M360 347L374 344L365 235Z" fill="#491957" stroke="#491957"></path><path d="M408 311L374 344L429 377Z" fill="#511d5b" stroke="#511d5b"></path><path d="M435 162L421 200L487 229Z" fill="#59215e" stroke="#59215e"></path><path d="M487 229L421 200L455 281Z" fill="#3d1453" stroke="#3d1453"></path><path d="M541 397L567 363L517 365Z" fill="#59215e" stroke="#59215e"></path><path d="M419 412L454 410L429 377Z" fill="#612561" stroke="#612561"></path><path d="M429 377L454 410L449 377Z" fill="#3d1453" stroke="#3d1453"></path><path d="M530 406L541 397L517 365Z" fill="#411554" stroke="#411554"></path><path d="M535 242L516 193L487 229Z" fill="#391251" stroke="#391251"></path><path d="M603 259L630 315L624 253Z" fill="#5d235f" stroke="#5d235f"></path><path d="M630 315L586 272L554 305Z" fill="#59215e" stroke="#59215e"></path><path d="M535 242L563 219L516 193Z" fill="#612561" stroke="#612561"></path><path d="M530 406L517 365L471 389Z" fill="#5d235f" stroke="#5d235f"></path><path d="M586 272L563 219L535 242Z" fill="#491957" stroke="#491957"></path><path d="M374 344L377 368L429 377Z" fill="#411554" stroke="#411554"></path><path d="M505 456L530 406L471 389Z" fill="#451756" stroke="#451756"></path><path d="M365 235L374 344L408 311Z" fill="#3d1453" stroke="#3d1453"></path><path d="M374 344L360 347L377 368Z" fill="#391251" stroke="#391251"></path><path d="M377 368L419 412L429 377Z" fill="#391251" stroke="#391251"></path><path d="M454 410L505 456L471 389Z" fill="#3d1453" stroke="#3d1453"></path><path d="M371 225L365 235L455 281Z" fill="#59215e" stroke="#59215e"></path><path d="M421 200L371 225L455 281Z" fill="#3d1453" stroke="#3d1453"></path><path d="M435 162L406 184L421 200Z" fill="#5d235f" stroke="#5d235f"></path><path d="M421 200L406 184L371 225Z" fill="#5d235f" stroke="#5d235f"></path><path d="M603 259L586 272L630 315Z" fill="#551f5c" stroke="#551f5c"></path><path d="M586 272L603 259L563 219Z" fill="#59215e" stroke="#59215e"></path><path d="M516 193L435 162L487 229Z" fill="#612561" stroke="#612561"></path><path d="M360 347L339 375L377 368Z" fill="#411554" stroke="#411554"></path><path d="M377 368L396 440L419 412Z" fill="#4d1b59" stroke="#4d1b59"></path><path d="M365 235L339 346L360 347Z" fill="#5d235f" stroke="#5d235f"></path><path d="M563 219L519 158L516 193Z" fill="#551f5c" stroke="#551f5c"></path><path d="M516 193L519 158L435 162Z" fill="#391251" stroke="#391251"></path><path d="M598 141L519 158L563 219Z" fill="#59215e" stroke="#59215e"></path><path d="M603 259L602 217L563 219Z" fill="#5d235f" stroke="#5d235f"></path><path d="M339 346L339 375L360 347Z" fill="#491957" stroke="#491957"></path><path d="M630 315L554 305L565 340Z" fill="#511d5b" stroke="#511d5b"></path><path d="M603 259L624 253L602 217Z" fill="#5d235f" stroke="#5d235f"></path><path d="M611 392L630 315L567 363Z" fill="#3d1453" stroke="#3d1453"></path><path d="M567 363L630 315L565 340Z" fill="#3d1453" stroke="#3d1453"></path><path d="M474 470L454 410L419 412Z" fill="#391251" stroke="#391251"></path><path d="M474 470L505 456L454 410Z" fill="#612561" stroke="#612561"></path><path d="M579 469L611 392L541 397Z" fill="#451756" stroke="#451756"></path><path d="M541 397L611 392L567 363Z" fill="#551f5c" stroke="#551f5c"></path><path d="M339 375L396 440L377 368Z" fill="#5d235f" stroke="#5d235f"></path><path d="M598 141L521 141L519 158Z" fill="#511d5b" stroke="#511d5b"></path><path d="M519 158L486 112L435 162Z" fill="#4d1b59" stroke="#4d1b59"></path><path d="M579 469L541 397L530 406Z" fill="#4d1b59" stroke="#4d1b59"></path><path d="M315 214L317 236L365 235Z" fill="#612561" stroke="#612561"></path><path d="M365 235L294 271L339 346Z" fill="#612561" stroke="#612561"></path><path d="M339 346L306 401L339 375Z" fill="#59215e" stroke="#59215e"></path><path d="M315 214L365 235L371 225Z" fill="#3d1453" stroke="#3d1453"></path><path d="M315 214L371 225L319 192Z" fill="#491957" stroke="#491957"></path><path d="M661 276L638 249L624 253Z" fill="#5d235f" stroke="#5d235f"></path><path d="M624 253L638 249L602 217Z" fill="#491957" stroke="#491957"></path><path d="M602 217L598 141L563 219Z" fill="#451756" stroke="#451756"></path><path d="M396 440L474 470L419 412Z" fill="#4d1b59" stroke="#4d1b59"></path><path d="M395 125L398 140L402 113Z" fill="#5d235f" stroke="#5d235f"></path><path d="M435 162L398 140L406 184Z" fill="#551f5c" stroke="#551f5c"></path><path d="M375 145L371 225L406 184Z" fill="#491957" stroke="#491957"></path><path d="M257 233L294 271L317 236Z" fill="#551f5c" stroke="#551f5c"></path><path d="M317 236L294 271L365 235Z" fill="#511d5b" stroke="#511d5b"></path><path d="M398 140L375 145L406 184Z" fill="#451756" stroke="#451756"></path><path d="M441 508L488 484L474 470Z" fill="#59215e" stroke="#59215e"></path><path d="M474 470L488 484L505 456Z" fill="#3d1453" stroke="#3d1453"></path><path d="M505 456L579 469L530 406Z" fill="#391251" stroke="#391251"></path><path d="M611 392L650 361L630 315Z" fill="#411554" stroke="#411554"></path><path d="M630 315L661 276L624 253Z" fill="#451756" stroke="#451756"></path><path d="M521 141L486 112L519 158Z" fill="#612561" stroke="#612561"></path><path d="M398 140L395 125L375 145Z" fill="#391251" stroke="#391251"></path><path d="M673 328L661 276L630 315Z" fill="#411554" stroke="#411554"></path><path d="M375 145L319 192L371 225Z" fill="#612561" stroke="#612561"></path><path d="M242 244L274 318L294 271Z" fill="#4d1b59" stroke="#4d1b59"></path><path d="M402 113L398 140L435 162Z" fill="#511d5b" stroke="#511d5b"></path><path d="M375 145L334 129L319 192Z" fill="#612561" stroke="#612561"></path><path d="M263 338L306 401L339 346Z" fill="#59215e" stroke="#59215e"></path><path d="M339 375L336 467L396 440Z" fill="#511d5b" stroke="#511d5b"></path><path d="M396 440L441 508L474 470Z" fill="#511d5b" stroke="#511d5b"></path><path d="M469 95L402 113L435 162Z" fill="#612561" stroke="#612561"></path><path d="M395 125L348 124L375 145Z" fill="#411554" stroke="#411554"></path><path d="M576 514L579 469L505 456Z" fill="#391251" stroke="#391251"></path><path d="M611 392L640 424L650 361Z" fill="#4d1b59" stroke="#4d1b59"></path><path d="M611 147L668 160L648 144Z" fill="#3d1453" stroke="#3d1453"></path><path d="M611 147L598 141L602 217Z" fill="#451756" stroke="#451756"></path><path d="M521 141L544 75L486 112Z" fill="#612561" stroke="#612561"></path><path d="M686 382L673 328L650 361Z" fill="#411554" stroke="#411554"></path><path d="M650 361L673 328L630 315Z" fill="#551f5c" stroke="#551f5c"></path><path d="M263 338L274 318L251 328Z" fill="#59215e" stroke="#59215e"></path><path d="M294 271L274 318L339 346Z" fill="#4d1b59" stroke="#4d1b59"></path><path d="M579 469L635 424L611 392Z" fill="#411554" stroke="#411554"></path><path d="M510 67L469 95L486 112Z" fill="#411554" stroke="#411554"></path><path d="M486 112L469 95L435 162Z" fill="#511d5b" stroke="#511d5b"></path><path d="M611 147L602 217L668 160Z" fill="#59215e" stroke="#59215e"></path><path d="M644 429L640 424L635 424Z" fill="#511d5b" stroke="#511d5b"></path><path d="M635 424L640 424L611 392Z" fill="#612561" stroke="#612561"></path><path d="M673 328L683 259L661 276Z" fill="#4d1b59" stroke="#4d1b59"></path><path d="M661 276L683 259L638 249Z" fill="#411554" stroke="#411554"></path><path d="M393 519L441 508L396 440Z" fill="#5d235f" stroke="#5d235f"></path><path d="M488 484L576 514L505 456Z" fill="#411554" stroke="#411554"></path><path d="M625 487L644 429L635 424Z" fill="#491957" stroke="#491957"></path><path d="M640 424L686 382L650 361Z" fill="#612561" stroke="#612561"></path><path d="M251 328L274 318L242 244Z" fill="#59215e" stroke="#59215e"></path><path d="M274 318L263 338L339 346Z" fill="#59215e" stroke="#59215e"></path><path d="M381 61L348 124L402 113Z" fill="#411554" stroke="#411554"></path><path d="M402 113L348 124L395 125Z" fill="#491957" stroke="#491957"></path><path d="M611 147L590 116L598 141Z" fill="#4d1b59" stroke="#4d1b59"></path><path d="M598 141L590 116L521 141Z" fill="#391251" stroke="#391251"></path><path d="M290 489L336 467L306 401Z" fill="#5d235f" stroke="#5d235f"></path><path d="M306 401L336 467L339 375Z" fill="#491957" stroke="#491957"></path><path d="M336 467L356 482L396 440Z" fill="#391251" stroke="#391251"></path><path d="M348 124L334 129L375 145Z" fill="#612561" stroke="#612561"></path><path d="M257 233L317 236L315 214Z" fill="#4d1b59" stroke="#4d1b59"></path><path d="M257 233L315 214L262 200Z" fill="#391251" stroke="#391251"></path><path d="M263 338L251 391L306 401Z" fill="#59215e" stroke="#59215e"></path><path d="M691 397L686 382L640 424Z" fill="#411554" stroke="#411554"></path><path d="M673 328L706 339L683 259Z" fill="#3d1453" stroke="#3d1453"></path><path d="M262 200L315 214L319 192Z" fill="#411554" stroke="#411554"></path><path d="M668 160L602 217L638 249Z" fill="#59215e" stroke="#59215e"></path><path d="M611 147L648 144L590 116Z" fill="#5d235f" stroke="#5d235f"></path><path d="M334 129L296 148L319 192Z" fill="#4d1b59" stroke="#4d1b59"></path><path d="M615 61L544 75L590 116Z" fill="#59215e" stroke="#59215e"></path><path d="M590 116L544 75L521 141Z" fill="#4d1b59" stroke="#4d1b59"></path><path d="M446 34L381 61L402 113Z" fill="#451756" stroke="#451756"></path><path d="M544 75L510 67L486 112Z" fill="#612561" stroke="#612561"></path><path d="M296 148L262 200L319 192Z" fill="#491957" stroke="#491957"></path><path d="M686 382L706 339L673 328Z" fill="#3d1453" stroke="#3d1453"></path><path d="M356 482L393 519L396 440Z" fill="#4d1b59" stroke="#4d1b59"></path><path d="M365 510L393 519L356 482Z" fill="#3d1453" stroke="#3d1453"></path><path d="M644 429L691 397L640 424Z" fill="#391251" stroke="#391251"></path><path d="M686 382L691 397L706 339Z" fill="#59215e" stroke="#59215e"></path><path d="M683 259L668 160L638 249Z" fill="#411554" stroke="#411554"></path><path d="M722 201L668 160L683 259Z" fill="#551f5c" stroke="#551f5c"></path><path d="M515 540L576 514L488 484Z" fill="#451756" stroke="#451756"></path><path d="M579 469L625 487L635 424Z" fill="#411554" stroke="#411554"></path><path d="M644 429L688 462L691 397Z" fill="#411554" stroke="#411554"></path><path d="M475 540L488 484L441 508Z" fill="#3d1453" stroke="#3d1453"></path><path d="M322 540L365 510L356 482Z" fill="#59215e" stroke="#59215e"></path><path d="M262 200L242 244L257 233Z" fill="#551f5c" stroke="#551f5c"></path><path d="M257 233L242 244L294 271Z" fill="#391251" stroke="#391251"></path><path d="M576 514L625 487L579 469Z" fill="#391251" stroke="#391251"></path><path d="M437 540L475 540L441 508Z" fill="#59215e" stroke="#59215e"></path><path d="M207 383L251 391L251 328Z" fill="#411554" stroke="#411554"></path><path d="M251 328L251 391L263 338Z" fill="#5d235f" stroke="#5d235f"></path><path d="M336 467L294 513L356 482Z" fill="#491957" stroke="#491957"></path><path d="M409 540L441 508L393 519Z" fill="#4d1b59" stroke="#4d1b59"></path><path d="M409 540L437 540L441 508Z" fill="#5d235f" stroke="#5d235f"></path><path d="M544 75L506 56L510 67Z" fill="#612561" stroke="#612561"></path><path d="M510 67L506 56L469 95Z" fill="#411554" stroke="#411554"></path><path d="M348 124L319 72L334 129Z" fill="#491957" stroke="#491957"></path><path d="M475 540L515 540L488 484Z" fill="#59215e" stroke="#59215e"></path><path d="M362 540L409 540L393 519Z" fill="#451756" stroke="#451756"></path><path d="M446 34L402 113L469 95Z" fill="#451756" stroke="#451756"></path><path d="M334 129L268 103L296 148Z" fill="#4d1b59" stroke="#4d1b59"></path><path d="M230 441L252 435L251 391Z" fill="#551f5c" stroke="#551f5c"></path><path d="M251 391L252 435L306 401Z" fill="#491957" stroke="#491957"></path><path d="M365 510L362 540L393 519Z" fill="#5d235f" stroke="#5d235f"></path><path d="M515 540L583 540L576 514Z" fill="#511d5b" stroke="#511d5b"></path><path d="M576 514L583 540L625 487Z" fill="#391251" stroke="#391251"></path><path d="M252 435L290 489L306 401Z" fill="#451756" stroke="#451756"></path><path d="M736 239L722 201L683 259Z" fill="#4d1b59" stroke="#4d1b59"></path><path d="M676 104L590 116L648 144Z" fill="#4d1b59" stroke="#4d1b59"></path><path d="M506 56L446 34L469 95Z" fill="#451756" stroke="#451756"></path><path d="M322 540L362 540L365 510Z" fill="#551f5c" stroke="#551f5c"></path><path d="M745 278L736 239L683 259Z" fill="#511d5b" stroke="#511d5b"></path><path d="M745 278L683 259L706 339Z" fill="#59215e" stroke="#59215e"></path><path d="M701 519L688 462L625 487Z" fill="#511d5b" stroke="#511d5b"></path><path d="M625 487L688 462L644 429Z" fill="#451756" stroke="#451756"></path><path d="M755 325L745 278L706 339Z" fill="#3d1453" stroke="#3d1453"></path><path d="M513 0L489 28L516 0Z" fill="#4d1b59" stroke="#4d1b59"></path><path d="M506 56L489 28L446 34Z" fill="#511d5b" stroke="#511d5b"></path><path d="M489 28L506 56L516 0Z" fill="#391251" stroke="#391251"></path><path d="M755 325L706 339L781 360Z" fill="#4d1b59" stroke="#4d1b59"></path><path d="M291 71L319 72L313 51Z" fill="#551f5c" stroke="#551f5c"></path><path d="M381 61L319 72L348 124Z" fill="#391251" stroke="#391251"></path><path d="M177 245L197 253L188 196Z" fill="#451756" stroke="#451756"></path><path d="M188 196L197 253L242 244Z" fill="#391251" stroke="#391251"></path><path d="M676 104L648 144L668 160Z" fill="#411554" stroke="#411554"></path><path d="M676 104L615 61L590 116Z" fill="#491957" stroke="#491957"></path><path d="M721 136L676 104L668 160Z" fill="#391251" stroke="#391251"></path><path d="M253 540L294 513L290 489Z" fill="#391251" stroke="#391251"></path><path d="M290 489L294 513L336 467Z" fill="#5d235f" stroke="#5d235f"></path><path d="M191 314L207 383L251 328Z" fill="#511d5b" stroke="#511d5b"></path><path d="M252 435L230 441L290 489Z" fill="#411554" stroke="#411554"></path><path d="M781 360L706 339L691 397Z" fill="#3d1453" stroke="#3d1453"></path><path d="M201 157L262 200L296 148Z" fill="#551f5c" stroke="#551f5c"></path><path d="M242 244L191 314L251 328Z" fill="#59215e" stroke="#59215e"></path><path d="M207 383L230 441L251 391Z" fill="#491957" stroke="#491957"></path><path d="M197 253L191 314L242 244Z" fill="#411554" stroke="#411554"></path><path d="M319 72L268 103L334 129Z" fill="#3d1453" stroke="#3d1453"></path><path d="M294 513L322 540L356 482Z" fill="#612561" stroke="#612561"></path><path d="M191 314L200 382L207 383Z" fill="#491957" stroke="#491957"></path><path d="M207 383L191 455L230 441Z" fill="#4d1b59" stroke="#4d1b59"></path><path d="M790 219L736 179L722 201Z" fill="#5d235f" stroke="#5d235f"></path><path d="M722 201L736 179L668 160Z" fill="#4d1b59" stroke="#4d1b59"></path><path d="M749 159L736 179L790 219Z" fill="#451756" stroke="#451756"></path><path d="M722 201L736 239L790 219Z" fill="#451756" stroke="#451756"></path><path d="M313 51L319 72L381 61Z" fill="#4d1b59" stroke="#4d1b59"></path><path d="M319 72L291 71L268 103Z" fill="#451756" stroke="#451756"></path><path d="M701 519L725 455L688 462Z" fill="#411554" stroke="#411554"></path><path d="M688 462L725 455L691 397Z" fill="#451756" stroke="#451756"></path><path d="M736 179L721 136L668 160Z" fill="#411554" stroke="#411554"></path><path d="M358 0L313 51L381 61Z" fill="#411554" stroke="#411554"></path><path d="M418 0L381 61L446 34Z" fill="#59215e" stroke="#59215e"></path><path d="M253 94L268 103L291 71Z" fill="#511d5b" stroke="#511d5b"></path><path d="M253 94L256 98L268 103Z" fill="#411554" stroke="#411554"></path><path d="M229 107L201 157L296 148Z" fill="#451756" stroke="#451756"></path><path d="M583 540L648 540L625 487Z" fill="#391251" stroke="#391251"></path><path d="M513 0L449 0L489 28Z" fill="#551f5c" stroke="#551f5c"></path><path d="M489 28L449 0L446 34Z" fill="#411554" stroke="#411554"></path><path d="M516 0L506 56L552 0Z" fill="#4d1b59" stroke="#4d1b59"></path><path d="M648 540L655 540L625 487Z" fill="#59215e" stroke="#59215e"></path><path d="M552 0L506 56L544 75Z" fill="#551f5c" stroke="#551f5c"></path><path d="M219 27L253 94L291 71Z" fill="#4d1b59" stroke="#4d1b59"></path><path d="M188 196L242 244L262 200Z" fill="#5d235f" stroke="#5d235f"></path><path d="M188 196L262 200L201 157Z" fill="#5d235f" stroke="#5d235f"></path><path d="M197 253L177 245L191 314Z" fill="#4d1b59" stroke="#4d1b59"></path><path d="M146 391L191 455L200 382Z" fill="#491957" stroke="#491957"></path><path d="M449 0L418 0L446 34Z" fill="#551f5c" stroke="#551f5c"></path><path d="M296 148L268 103L229 107Z" fill="#451756" stroke="#451756"></path><path d="M792 246L736 239L745 278Z" fill="#411554" stroke="#411554"></path><path d="M736 179L749 159L721 136Z" fill="#5d235f" stroke="#5d235f"></path><path d="M229 107L268 103L256 98Z" fill="#391251" stroke="#391251"></path><path d="M642 35L552 0L615 61Z" fill="#411554" stroke="#411554"></path><path d="M615 61L552 0L544 75Z" fill="#451756" stroke="#451756"></path><path d="M642 35L615 61L676 104Z" fill="#491957" stroke="#491957"></path><path d="M253 94L229 107L256 98Z" fill="#411554" stroke="#411554"></path><path d="M186 115L229 107L159 52Z" fill="#3d1453" stroke="#3d1453"></path><path d="M672 18L642 35L676 104Z" fill="#391251" stroke="#391251"></path><path d="M718 77L676 104L730 89Z" fill="#451756" stroke="#451756"></path><path d="M725 455L781 360L691 397Z" fill="#451756" stroke="#451756"></path><path d="M755 325L797 278L745 278Z" fill="#59215e" stroke="#59215e"></path><path d="M781 360L787 329L755 325Z" fill="#4d1b59" stroke="#4d1b59"></path><path d="M655 540L701 519L625 487Z" fill="#511d5b" stroke="#511d5b"></path><path d="M725 455L765 461L781 360Z" fill="#612561" stroke="#612561"></path><path d="M418 0L358 0L381 61Z" fill="#4d1b59" stroke="#4d1b59"></path><path d="M219 27L229 107L253 94Z" fill="#59215e" stroke="#59215e"></path><path d="M797 278L792 246L745 278Z" fill="#612561" stroke="#612561"></path><path d="M188 196L161 223L177 245Z" fill="#3d1453" stroke="#3d1453"></path><path d="M177 245L144 317L191 314Z" fill="#491957" stroke="#491957"></path><path d="M128 218L161 223L121 173Z" fill="#511d5b" stroke="#511d5b"></path><path d="M161 223L188 196L121 173Z" fill="#3d1453" stroke="#3d1453"></path><path d="M821 280L797 278L787 329Z" fill="#5d235f" stroke="#5d235f"></path><path d="M787 329L797 278L755 325Z" fill="#411554" stroke="#411554"></path><path d="M150 382L200 382L191 314Z" fill="#511d5b" stroke="#511d5b"></path><path d="M200 382L191 455L207 383Z" fill="#511d5b" stroke="#511d5b"></path><path d="M201 523L253 540L290 489Z" fill="#3d1453" stroke="#3d1453"></path><path d="M294 513L253 540L322 540Z" fill="#511d5b" stroke="#511d5b"></path><path d="M828 187L790 219L842 212Z" fill="#59215e" stroke="#59215e"></path><path d="M792 246L790 219L736 239Z" fill="#551f5c" stroke="#551f5c"></path><path d="M201 523L290 489L230 441Z" fill="#4d1b59" stroke="#4d1b59"></path><path d="M730 89L721 136L749 159Z" fill="#612561" stroke="#612561"></path><path d="M730 89L676 104L721 136Z" fill="#4d1b59" stroke="#4d1b59"></path><path d="M805 143L730 89L749 159Z" fill="#4d1b59" stroke="#4d1b59"></path><path d="M112 296L144 317L177 245Z" fill="#511d5b" stroke="#511d5b"></path><path d="M655 540L702 540L701 519Z" fill="#511d5b" stroke="#511d5b"></path><path d="M748 534L765 461L725 455Z" fill="#5d235f" stroke="#5d235f"></path><path d="M748 534L725 455L701 519Z" fill="#511d5b" stroke="#511d5b"></path><path d="M845 311L821 280L787 329Z" fill="#451756" stroke="#451756"></path><path d="M144 317L150 382L191 314Z" fill="#5d235f" stroke="#5d235f"></path><path d="M104 342L146 391L150 382Z" fill="#59215e" stroke="#59215e"></path><path d="M150 382L146 391L200 382Z" fill="#59215e" stroke="#59215e"></path><path d="M288 0L291 71L313 51Z" fill="#411554" stroke="#411554"></path><path d="M229 107L186 115L201 157Z" fill="#451756" stroke="#451756"></path><path d="M663 0L672 18L731 0Z" fill="#451756" stroke="#451756"></path><path d="M718 77L672 18L676 104Z" fill="#4d1b59" stroke="#4d1b59"></path><path d="M642 35L656 0L552 0Z" fill="#551f5c" stroke="#551f5c"></path><path d="M827 343L787 329L781 360Z" fill="#59215e" stroke="#59215e"></path><path d="M797 278L821 280L792 246Z" fill="#451756" stroke="#451756"></path><path d="M790 219L805 143L749 159Z" fill="#511d5b" stroke="#511d5b"></path><path d="M672 18L656 0L642 35Z" fill="#411554" stroke="#411554"></path><path d="M806 463L789 456L765 461Z" fill="#491957" stroke="#491957"></path><path d="M765 461L798 440L781 360Z" fill="#491957" stroke="#491957"></path><path d="M358 0L288 0L313 51Z" fill="#5d235f" stroke="#5d235f"></path><path d="M789 456L798 440L765 461Z" fill="#3d1453" stroke="#3d1453"></path><path d="M672 18L663 0L656 0Z" fill="#4d1b59" stroke="#4d1b59"></path><path d="M731 0L672 18L718 77Z" fill="#391251" stroke="#391251"></path><path d="M163 528L201 523L191 455Z" fill="#411554" stroke="#411554"></path><path d="M191 455L201 523L230 441Z" fill="#612561" stroke="#612561"></path><path d="M833 414L827 343L781 360Z" fill="#511d5b" stroke="#511d5b"></path><path d="M121 173L188 196L124 154Z" fill="#391251" stroke="#391251"></path><path d="M161 223L128 218L177 245Z" fill="#451756" stroke="#451756"></path><path d="M144 317L104 342L150 382Z" fill="#5d235f" stroke="#5d235f"></path><path d="M146 391L154 455L191 455Z" fill="#4d1b59" stroke="#4d1b59"></path><path d="M702 540L748 534L701 519Z" fill="#391251" stroke="#391251"></path><path d="M789 456L806 463L798 440Z" fill="#5d235f" stroke="#5d235f"></path><path d="M128 218L112 296L177 245Z" fill="#391251" stroke="#391251"></path><path d="M146 391L111 426L154 455Z" fill="#511d5b" stroke="#511d5b"></path><path d="M828 187L805 143L790 219Z" fill="#3d1453" stroke="#3d1453"></path><path d="M733 0L731 0L759 16Z" fill="#59215e" stroke="#59215e"></path><path d="M288 0L257 0L291 71Z" fill="#4d1b59" stroke="#4d1b59"></path><path d="M793 540L806 463L765 461Z" fill="#411554" stroke="#411554"></path><path d="M798 440L833 414L781 360Z" fill="#551f5c" stroke="#551f5c"></path><path d="M827 343L845 311L787 329Z" fill="#4d1b59" stroke="#4d1b59"></path><path d="M842 212L790 219L792 246Z" fill="#3d1453" stroke="#3d1453"></path><path d="M878 384L845 311L827 343Z" fill="#391251" stroke="#391251"></path><path d="M842 212L792 246L821 280Z" fill="#491957" stroke="#491957"></path><path d="M257 0L219 27L291 71Z" fill="#4d1b59" stroke="#4d1b59"></path><path d="M124 154L188 196L201 157Z" fill="#451756" stroke="#451756"></path><path d="M112 296L104 342L144 317Z" fill="#391251" stroke="#391251"></path><path d="M183 540L201 523L163 528Z" fill="#491957" stroke="#491957"></path><path d="M183 540L189 540L201 523Z" fill="#3d1453" stroke="#3d1453"></path><path d="M201 523L189 540L253 540Z" fill="#612561" stroke="#612561"></path><path d="M124 154L201 157L186 115Z" fill="#612561" stroke="#612561"></path><path d="M128 218L84 275L112 296Z" fill="#612561" stroke="#612561"></path><path d="M112 296L84 275L104 342Z" fill="#511d5b" stroke="#511d5b"></path><path d="M806 463L833 414L798 440Z" fill="#451756" stroke="#451756"></path><path d="M887 243L842 212L821 280Z" fill="#411554" stroke="#411554"></path><path d="M831 125L821 119L805 143Z" fill="#551f5c" stroke="#551f5c"></path><path d="M163 528L191 455L154 455Z" fill="#3d1453" stroke="#3d1453"></path><path d="M127 111L124 154L186 115Z" fill="#551f5c" stroke="#551f5c"></path><path d="M104 342L111 426L146 391Z" fill="#551f5c" stroke="#551f5c"></path><path d="M100 540L163 528L154 455Z" fill="#3d1453" stroke="#3d1453"></path><path d="M111 426L116 445L154 455Z" fill="#411554" stroke="#411554"></path><path d="M831 125L805 143L846 145Z" fill="#4d1b59" stroke="#4d1b59"></path><path d="M805 143L802 79L730 89Z" fill="#5d235f" stroke="#5d235f"></path><path d="M82 231L128 218L76 212Z" fill="#391251" stroke="#391251"></path><path d="M82 231L84 275L128 218Z" fill="#4d1b59" stroke="#4d1b59"></path><path d="M104 342L59 365L111 426Z" fill="#3d1453" stroke="#3d1453"></path><path d="M776 43L718 77L730 89Z" fill="#411554" stroke="#411554"></path><path d="M821 119L802 79L805 143Z" fill="#451756" stroke="#451756"></path><path d="M759 16L731 0L718 77Z" fill="#411554" stroke="#411554"></path><path d="M802 79L776 43L730 89Z" fill="#451756" stroke="#451756"></path><path d="M159 52L127 111L186 115Z" fill="#551f5c" stroke="#551f5c"></path><path d="M76 212L128 218L121 173Z" fill="#391251" stroke="#391251"></path><path d="M846 145L805 143L828 187Z" fill="#59215e" stroke="#59215e"></path><path d="M821 119L838 83L802 79Z" fill="#5d235f" stroke="#5d235f"></path><path d="M867 489L852 427L806 463Z" fill="#59215e" stroke="#59215e"></path><path d="M806 463L852 427L833 414Z" fill="#451756" stroke="#451756"></path><path d="M833 414L878 384L827 343Z" fill="#391251" stroke="#391251"></path><path d="M889 212L828 187L842 212Z" fill="#4d1b59" stroke="#4d1b59"></path><path d="M89 157L121 173L124 154Z" fill="#612561" stroke="#612561"></path><path d="M702 540L793 540L748 534Z" fill="#511d5b" stroke="#511d5b"></path><path d="M748 534L793 540L765 461Z" fill="#511d5b" stroke="#511d5b"></path><path d="M219 27L159 52L229 107Z" fill="#491957" stroke="#491957"></path><path d="M164 42L159 52L219 27Z" fill="#3d1453" stroke="#3d1453"></path><path d="M805 0L759 16L776 43Z" fill="#59215e" stroke="#59215e"></path><path d="M776 43L759 16L718 77Z" fill="#491957" stroke="#491957"></path><path d="M887 243L821 280L892 262Z" fill="#391251" stroke="#391251"></path><path d="M889 212L846 145L828 187Z" fill="#491957" stroke="#491957"></path><path d="M831 125L838 83L821 119Z" fill="#511d5b" stroke="#511d5b"></path><path d="M176 0L164 42L219 27Z" fill="#3d1453" stroke="#3d1453"></path><path d="M117 77L108 128L127 111Z" fill="#391251" stroke="#391251"></path><path d="M117 77L127 111L159 52Z" fill="#491957" stroke="#491957"></path><path d="M127 111L108 128L124 154Z" fill="#59215e" stroke="#59215e"></path><path d="M54 216L69 260L82 231Z" fill="#451756" stroke="#451756"></path><path d="M82 231L69 260L84 275Z" fill="#4d1b59" stroke="#4d1b59"></path><path d="M84 275L59 365L104 342Z" fill="#451756" stroke="#451756"></path><path d="M89 157L76 212L121 173Z" fill="#612561" stroke="#612561"></path><path d="M46 119L89 157L108 128Z" fill="#551f5c" stroke="#551f5c"></path><path d="M108 128L89 157L124 154Z" fill="#3d1453" stroke="#3d1453"></path><path d="M927 433L878 384L852 427Z" fill="#411554" stroke="#411554"></path><path d="M852 427L878 384L833 414Z" fill="#612561" stroke="#612561"></path><path d="M892 262L821 280L845 311Z" fill="#491957" stroke="#491957"></path><path d="M927 300L892 262L845 311Z" fill="#411554" stroke="#411554"></path><path d="M892 262L892 256L887 243Z" fill="#5d235f" stroke="#5d235f"></path><path d="M125 0L117 77L159 52Z" fill="#391251" stroke="#391251"></path><path d="M0 317L59 365L84 275Z" fill="#511d5b" stroke="#511d5b"></path><path d="M111 426L85 462L116 445Z" fill="#411554" stroke="#411554"></path><path d="M116 445L85 462L154 455Z" fill="#491957" stroke="#491957"></path><path d="M846 145L838 83L831 125Z" fill="#551f5c" stroke="#551f5c"></path><path d="M824 0L805 0L776 43Z" fill="#4d1b59" stroke="#4d1b59"></path><path d="M904 50L838 83L846 145Z" fill="#3d1453" stroke="#3d1453"></path><path d="M889 212L842 212L887 243Z" fill="#511d5b" stroke="#511d5b"></path><path d="M257 0L176 0L219 27Z" fill="#3d1453" stroke="#3d1453"></path><path d="M164 42L137 0L159 52Z" fill="#3d1453" stroke="#3d1453"></path><path d="M46 442L85 462L111 426Z" fill="#4d1b59" stroke="#4d1b59"></path><path d="M903 200L889 212L887 243Z" fill="#612561" stroke="#612561"></path><path d="M793 540L833 525L806 463Z" fill="#491957" stroke="#491957"></path><path d="M76 212L54 216L82 231Z" fill="#511d5b" stroke="#511d5b"></path><path d="M0 344L20 369L59 365Z" fill="#451756" stroke="#451756"></path><path d="M89 157L54 216L76 212Z" fill="#612561" stroke="#612561"></path><path d="M0 196L54 216L89 157Z" fill="#411554" stroke="#411554"></path><path d="M793 540L835 540L833 525Z" fill="#451756" stroke="#451756"></path><path d="M833 525L867 489L806 463Z" fill="#411554" stroke="#411554"></path><path d="M885 540L867 489L833 525Z" fill="#59215e" stroke="#59215e"></path><path d="M960 263L892 256L892 262Z" fill="#491957" stroke="#491957"></path><path d="M960 246L903 200L887 243Z" fill="#59215e" stroke="#59215e"></path><path d="M889 212L903 200L846 145Z" fill="#511d5b" stroke="#511d5b"></path><path d="M960 246L887 243L892 256Z" fill="#4d1b59" stroke="#4d1b59"></path><path d="M927 300L845 311L930 321Z" fill="#411554" stroke="#411554"></path><path d="M824 0L802 79L838 83Z" fill="#5d235f" stroke="#5d235f"></path><path d="M824 0L776 43L802 79Z" fill="#511d5b" stroke="#511d5b"></path><path d="M759 16L805 0L733 0Z" fill="#491957" stroke="#491957"></path><path d="M80 521L154 455L85 462Z" fill="#612561" stroke="#612561"></path><path d="M80 521L100 540L154 455Z" fill="#391251" stroke="#391251"></path><path d="M163 528L100 540L183 540Z" fill="#59215e" stroke="#59215e"></path><path d="M176 0L137 0L164 42Z" fill="#59215e" stroke="#59215e"></path><path d="M117 77L46 119L108 128Z" fill="#451756" stroke="#451756"></path><path d="M32 415L46 442L111 426Z" fill="#5d235f" stroke="#5d235f"></path><path d="M32 415L111 426L59 365Z" fill="#612561" stroke="#612561"></path><path d="M930 321L845 311L878 384Z" fill="#491957" stroke="#491957"></path><path d="M63 515L80 521L85 462Z" fill="#511d5b" stroke="#511d5b"></path><path d="M960 361L930 321L878 384Z" fill="#511d5b" stroke="#511d5b"></path><path d="M20 369L32 415L59 365Z" fill="#411554" stroke="#411554"></path><path d="M46 442L63 515L85 462Z" fill="#4d1b59" stroke="#4d1b59"></path><path d="M890 20L824 0L838 83Z" fill="#4d1b59" stroke="#4d1b59"></path><path d="M137 0L125 0L159 52Z" fill="#451756" stroke="#451756"></path><path d="M0 317L84 275L69 260Z" fill="#4d1b59" stroke="#4d1b59"></path><path d="M61 32L46 119L117 77Z" fill="#511d5b" stroke="#511d5b"></path><path d="M0 241L0 317L69 260Z" fill="#391251" stroke="#391251"></path><path d="M40 540L63 515L0 504Z" fill="#391251" stroke="#391251"></path><path d="M80 521L40 540L100 540Z" fill="#391251" stroke="#391251"></path><path d="M910 540L914 455L867 489Z" fill="#511d5b" stroke="#511d5b"></path><path d="M867 489L914 455L852 427Z" fill="#411554" stroke="#411554"></path><path d="M914 455L927 433L852 427Z" fill="#612561" stroke="#612561"></path><path d="M20 369L0 383L32 415Z" fill="#451756" stroke="#451756"></path><path d="M32 415L0 414L46 442Z" fill="#411554" stroke="#411554"></path><path d="M0 241L69 260L54 216Z" fill="#3d1453" stroke="#3d1453"></path><path d="M835 540L885 540L833 525Z" fill="#4d1b59" stroke="#4d1b59"></path><path d="M960 418L945 411L927 433Z" fill="#3d1453" stroke="#3d1453"></path><path d="M0 317L0 344L59 365Z" fill="#391251" stroke="#391251"></path><path d="M0 232L0 241L54 216Z" fill="#5d235f" stroke="#5d235f"></path><path d="M0 196L0 232L54 216Z" fill="#511d5b" stroke="#511d5b"></path><path d="M0 344L0 383L20 369Z" fill="#59215e" stroke="#59215e"></path><path d="M960 418L927 433L960 480Z" fill="#612561" stroke="#612561"></path><path d="M927 433L945 411L878 384Z" fill="#491957" stroke="#491957"></path><path d="M930 321L960 310L927 300Z" fill="#3d1453" stroke="#3d1453"></path><path d="M960 361L960 310L930 321Z" fill="#511d5b" stroke="#511d5b"></path><path d="M927 300L960 263L892 262Z" fill="#491957" stroke="#491957"></path><path d="M951 111L904 50L846 145Z" fill="#59215e" stroke="#59215e"></path><path d="M46 119L0 196L89 157Z" fill="#551f5c" stroke="#551f5c"></path><path d="M960 310L960 263L927 300Z" fill="#411554" stroke="#411554"></path><path d="M960 263L960 246L892 256Z" fill="#4d1b59" stroke="#4d1b59"></path><path d="M0 383L0 414L32 415Z" fill="#491957" stroke="#491957"></path><path d="M945 411L960 361L878 384Z" fill="#4d1b59" stroke="#4d1b59"></path><path d="M125 0L61 32L117 77Z" fill="#511d5b" stroke="#511d5b"></path><path d="M46 119L0 128L0 196Z" fill="#59215e" stroke="#59215e"></path><path d="M960 418L960 393L945 411Z" fill="#411554" stroke="#411554"></path><path d="M945 411L960 393L960 361Z" fill="#391251" stroke="#391251"></path><path d="M960 149L846 145L903 200Z" fill="#491957" stroke="#491957"></path><path d="M0 504L63 515L46 442Z" fill="#391251" stroke="#391251"></path><path d="M63 515L40 540L80 521Z" fill="#511d5b" stroke="#511d5b"></path><path d="M885 540L910 540L867 489Z" fill="#4d1b59" stroke="#4d1b59"></path><path d="M960 480L927 433L914 455Z" fill="#5d235f" stroke="#5d235f"></path><path d="M904 50L890 20L838 83Z" fill="#59215e" stroke="#59215e"></path><path d="M0 103L0 128L46 119Z" fill="#411554" stroke="#411554"></path><path d="M960 246L960 149L903 200Z" fill="#511d5b" stroke="#511d5b"></path><path d="M928 0L898 5L890 20Z" fill="#59215e" stroke="#59215e"></path><path d="M18 58L11 82L46 119Z" fill="#451756" stroke="#451756"></path><path d="M960 149L951 111L846 145Z" fill="#4d1b59" stroke="#4d1b59"></path><path d="M11 82L0 103L46 119Z" fill="#59215e" stroke="#59215e"></path><path d="M960 149L960 128L951 111Z" fill="#3d1453" stroke="#3d1453"></path><path d="M960 107L904 50L951 111Z" fill="#5d235f" stroke="#5d235f"></path><path d="M928 0L890 20L904 50Z" fill="#612561" stroke="#612561"></path><path d="M890 20L898 5L824 0Z" fill="#411554" stroke="#411554"></path><path d="M61 32L18 58L46 119Z" fill="#411554" stroke="#411554"></path><path d="M11 82L0 80L0 103Z" fill="#612561" stroke="#612561"></path><path d="M0 414L0 504L46 442Z" fill="#391251" stroke="#391251"></path><path d="M910 540L960 480L914 455Z" fill="#511d5b" stroke="#511d5b"></path><path d="M960 128L960 107L951 111Z" fill="#5d235f" stroke="#5d235f"></path><path d="M18 58L0 80L11 82Z" fill="#411554" stroke="#411554"></path><path d="M0 504L0 540L40 540Z" fill="#4d1b59" stroke="#4d1b59"></path><path d="M910 540L960 540L960 480Z" fill="#451756" stroke="#451756"></path><path d="M960 10L928 0L904 50Z" fill="#411554" stroke="#411554"></path><path d="M898 5L928 0L824 0Z" fill="#3d1453" stroke="#3d1453"></path><path d="M61 32L16 0L18 58Z" fill="#4d1b59" stroke="#4d1b59"></path><path d="M18 58L0 0L0 80Z" fill="#551f5c" stroke="#551f5c"></path><path d="M125 0L16 0L61 32Z" fill="#5d235f" stroke="#5d235f"></path><path d="M16 0L0 0L18 58Z" fill="#491957" stroke="#491957"></path><path d="M960 107L960 10L904 50Z" fill="#3d1453" stroke="#3d1453"></path><path d="M960 10L960 0L928 0Z" fill="#59215e" stroke="#59215e"></path></g></svg>